<svg height="32" viewBox="0 0 32 32" width="32" xmlns="http://www.w3.org/2000/svg"><path d="M0 0h32v32H0z" fill="#f7df1e"/><path d="m21.517 22.712c.66 1.075 1.517 1.867 3.032 1.867 1.274 0 2.089-.637 2.089-1.518 0-1.054-.839-1.428-2.244-2.037l-.771-.331c-2.226-.947-3.705-2.135-3.705-4.646 0-2.313 1.762-4.074 4.515-4.074 1.959 0 3.367.682 4.381 2.461l-2.4 1.539c-.529-.947-1.098-1.32-1.981-1.32-.902 0-1.474.573-1.474 1.32 0 .924.572 1.298 1.893 1.87l.771.33c2.621 1.124 4.1 2.269 4.1 4.844 0 2.775-2.179 4.296-5.106 4.296-2.865 0-4.714-1.365-5.622-3.152zm-10.923.283c.484.858.925 1.584 1.981 1.584.968 0 1.62-.379 1.62-1.769v-9.615h3.079v9.653c0 3.164-1.85 4.62-4.567 4.62-2.449 0-3.916-1.284-4.635-2.822z" fill="#000"/></svg>
